<svg width="453" height="455" xmlns="http://www.w3.org/2000/svg" preserveAspectRatio="xMidYMid meet" version="1.0">

 <g>
  <title>Layer 1</title>
  <g id="svg_1" fill="#000000" transform="translate(0, 455) scale(0.1, -0.1)">
   <path fill="#e5622a" id="svg_2" d="m2015,4529c-715,-87 -1332,-487 -1696,-1101c-399,-672 -419,-1514 -54,-2206c295,-558 822,-978 1421,-1132c777,-200 1580,9 2148,560c133,129 212,223 310,368c325,481 451,1087 346,1668c-54,301 -169,585 -345,849c-345,519 -882,866 -1510,976c-129,23 -493,33 -620,18zm411,-159c967,-78 1748,-798 1909,-1760c23,-134 30,-402 16,-541c-105,-997 -883,-1775 -1880,-1880c-205,-21 -475,-3 -686,45c-287,66 -628,235 -851,421c-340,284 -584,663 -694,1079c-48,182 -61,279 -67,486c-9,350 50,644 193,948c126,271 349,555 584,745c252,204 579,356 902,422c204,41 371,51 574,35z"/>
   <path fill="#e5622a" id="svg_3" d="m3165,3740c-11,-5 -121,-109 -244,-233l-224,-225l-31,18c-45,26 -96,33 -146,20c-35,-9 -67,-35 -163,-128c-133,-131 -157,-167 -157,-242c0,-61 9,-82 63,-138l41,-42l-172,-173c-126,-127 -172,-180 -172,-197c0,-18 52,-76 197,-222c170,-171 202,-198 228,-198c26,0 54,24 195,165c91,91 170,165 176,165c5,0 23,-14 40,-31c36,-39 98,-68 143,-69c61,0 112,35 229,159c148,157 167,204 121,299l-22,44l232,232c131,131 231,239 231,249c0,36 -20,57 -53,57c-28,0 -58,-26 -262,-230l-230,-230l-205,205l-205,205l233,233c184,185 232,238 232,258c0,39 -38,63 -75,49zm-273,-827c258,-258 298,-302 298,-328c0,-25 -19,-49 -112,-142c-93,-93 -118,-113 -142,-113c-26,0 -70,40 -313,283c-156,155 -291,295 -299,310c-8,15 -13,36 -9,46c3,9 56,68 119,129c80,80 120,112 137,112c18,0 97,-73 321,-297zm-357,-373l140,-140l-143,-143l-142,-142l-142,142l-143,143l140,140c77,77 142,140 145,140c3,0 68,-63 145,-140z"/>
   <path fill="#e5622a" id="svg_4" d="m2530,2990c-11,-11 -20,-25 -20,-30c0,-31 45,-82 218,-248c201,-193 223,-207 256,-160c9,12 16,29 16,37c0,8 -91,106 -202,218c-213,213 -228,223 -268,183z"/>
   <path fill="#e5622a" id="svg_5" d="m1917,3112c-22,-24 -24,-169 -4,-196c19,-26 67,-24 89,4c24,29 26,155 2,188c-19,27 -64,29 -87,4z"/>
   <path fill="#e5622a" id="svg_6" d="m1550,2990c-35,-35 -25,-58 61,-142c45,-43 89,-78 98,-78c30,0 61,30 61,58c0,21 -19,46 -78,105c-83,82 -107,92 -142,57z"/>
   <path fill="#e5622a" id="svg_7" d="m1427,2622c-21,-23 -22,-56 -1,-76c24,-25 185,-23 207,2c21,23 21,41 1,70c-14,20 -24,22 -103,22c-72,0 -91,-3 -104,-18z"/>
   <path fill="#e5622a" id="svg_8" d="m1580,2357c-37,-24 -47,-40 -244,-354l-130,-208l-202,-206c-213,-215 -226,-235 -185,-272c40,-36 59,-24 237,153l170,170l203,-203l202,-202l-170,-170c-179,-179 -193,-201 -152,-238c41,-37 59,-26 259,175l191,193l282,179c240,154 285,186 306,221c29,49 32,120 8,168c-19,38 -557,582 -596,603c-44,23 -139,18 -179,-9zm270,-238c216,-209 400,-400 407,-423c4,-11 -2,-29 -12,-43c-11,-13 -131,-95 -269,-183l-250,-159l-212,211l-211,211l37,56c21,31 91,142 156,246c128,208 149,235 178,235c12,0 83,-61 176,-151z"/>
   <path fill="#e5622a" id="svg_9" d="m1550,2010c-40,-40 -29,-55 178,-262c174,-175 201,-198 230,-198c41,0 67,35 53,71c-5,13 -97,111 -203,217c-203,201 -219,211 -258,172z"/>
   <path fill="#e5622a" id="svg_10" d="m2902,2014c-28,-19 -28,-58 -1,-85c19,-19 30,-21 106,-17c70,2 87,6 99,22c19,27 18,52 -6,76c-17,17 -33,20 -98,20c-54,0 -84,-5 -100,-16z"/>
   <path fill="#e5622a" id="svg_11" d="m2769,1756c-18,-39 -4,-68 70,-139c54,-53 76,-67 99,-67c31,0 62,29 62,58c0,8 -35,50 -77,93c-65,68 -81,79 -110,79c-26,0 -36,-6 -44,-24z"/>
   <path fill="#e5622a" id="svg_12" d="m2526,1638c-11,-16 -16,-46 -16,-100c0,-84 17,-118 60,-118c43,0 60,34 60,118c0,91 -15,122 -60,122c-18,0 -34,-8 -44,-22z"/>
  </g>
 </g>
</svg>
